<?xml version="1.0" encoding="UTF-8"?><svg id="OBJECTS" xmlns="http://www.w3.org/2000/svg" xmlns:xlink="http://www.w3.org/1999/xlink" viewBox="0 0 375.87 391.98"><defs><style>.cls-1{fill:url(#linear-gradient);}.cls-1,.cls-2,.cls-3,.cls-4,.cls-5,.cls-6,.cls-7,.cls-8,.cls-9,.cls-10{stroke-width:0px;}.cls-2{fill:url(#linear-gradient-4);}.cls-3{fill:url(#linear-gradient-2);}.cls-4{fill:url(#linear-gradient-3);}.cls-5{fill:url(#linear-gradient-8);}.cls-6{fill:url(#linear-gradient-9);}.cls-7{fill:url(#linear-gradient-7);}.cls-8{fill:url(#linear-gradient-5);}.cls-9{fill:url(#linear-gradient-6);}.cls-10{fill:#4e4e4d;}</style><linearGradient id="linear-gradient" x1="211.46" y1="34.44" x2="258.1" y2="277.65" gradientTransform="translate(45.42 -58.19) rotate(15.07)" gradientUnits="userSpaceOnUse"><stop offset="0" stop-color="#9dc44d"/><stop offset="1" stop-color="#5fa69b"/></linearGradient><linearGradient id="linear-gradient-2" x1="271.72" y1="50.7" x2="314.51" y2="273.85" gradientTransform="translate(40.83 -54.93) rotate(8.54)" xlink:href="#linear-gradient"/><linearGradient id="linear-gradient-3" x1="23.47" y1="74.9" x2="66.27" y2="298.05" gradientTransform="translate(15.21 8.93) rotate(-1.74)" xlink:href="#linear-gradient"/><linearGradient id="linear-gradient-4" x1="116.02" y1="46.78" x2="170.62" y2="331.47" gradientTransform="translate(-41.66 11.31) rotate(-13.94)" xlink:href="#linear-gradient"/><linearGradient id="linear-gradient-5" x1="279.94" y1="-24.16" x2="308.74" y2="126.03" gradientTransform="translate(6.43 144.91) rotate(-19.41)" xlink:href="#linear-gradient"/><linearGradient id="linear-gradient-6" x1="65.61" y1="194.15" x2="92.59" y2="334.83" gradientTransform="translate(84.31 -149.18) rotate(24.44)" xlink:href="#linear-gradient"/><linearGradient id="linear-gradient-7" x1="186.99" y1="112" x2="222.18" y2="295.47" gradientTransform="translate(34.6 -177.22) rotate(14.06)" xlink:href="#linear-gradient"/><linearGradient id="linear-gradient-8" x1="273.32" y1="155.52" x2="302.12" y2="305.72" gradientTransform="translate(337.19 -111.37) rotate(54.91)" xlink:href="#linear-gradient"/><linearGradient id="linear-gradient-9" x1="-37.63" y1="-25.72" x2="-7.63" y2="130.71" gradientTransform="translate(71.38 223.71) rotate(-35.99)" xlink:href="#linear-gradient"/></defs><path class="cls-10" d="m218.7,382.69s-14.55-60.55-5.57-97.85c8.98-37.29,23.19-45.12,21.79-50.81-1.4-5.69-8.58-3.01-10.88,2.25-2.3,5.26-11.7,16.6-20.34,14.77-8.64-1.83-10.96-37.31-17.29-40.85-6.32-3.55-4.13,12.85-1.67,27.07,2.45,14.22-9.65,6.3-17.2-10.75-7.55-17.05-11.96-12.05-12.8-9.64-.83,2.41,16.59,32.83,15.31,34.28-1.29,1.46-23.12-23.76-25.24-23.04-2.12.72-5.74,2.72-.52,10.66,5.21,7.94,21.59,21.3,20.55,23.53-1.04,2.23-14.59-9.92-19.53-10.21-4.94-.29-2.93,6.67,5.92,13.02,8.86,6.34,30.54,13.27,31.23,37.24.69,23.97-5.54,80.24-5.54,80.24,0,0,15.4,21.05,41.78.09Z"/><path class="cls-1" d="m204.62,222.06s-55.56-81.72,38.77-169.82c0,0,86.35,101.68-24.14,170.75,0,0,2.62-65.56,15.01-92.27,0,0-33.22,58.1-29.64,91.34Z"/><path class="cls-3" d="m242.15,229.94s34.12-71.88,133.72-42.24c0,0-35.44,101.38-128.42,52.76,0,0,46.61-24.86,70.2-27.14,0,0-53.9.6-75.5,16.61Z"/><path class="cls-4" d="m138.36,231.36S72.72,277.51,0,202.05c0,0,81.45-71.4,138.93,17.43,0,0-53.26-1.29-75.1-11.02,0,0,47.59,26.23,74.53,22.9Z"/><path class="cls-2" d="m154.84,209.68s-85.02-28.99-64.64-144.52c0,0,118.28,26.65,75.76,137.21,0,0-33.9-49.06-39.5-75.22,0,0,7.64,60.38,28.39,82.53Z"/><path class="cls-8" d="m288.17,163.55s-2.39-53.5,66.18-67.3c0,0,10.91,71.46-59.71,71.88,0,0,19.87-29.48,33.18-38.28,0,0-31.86,17.36-39.65,33.7Z"/><path class="cls-9" d="m77.6,165.71s-49.97,7.86-70.13-55.06c0,0,65.94-17.75,73.76,48.5,0,0-29.78-15.54-39.43-27.12,0,0,19.64,28.08,35.8,33.68Z"/><path class="cls-7" d="m175.35,101.79s-39.61-42.22,6.95-101.79c0,0,59.24,50.95,1.59,100.99,0,0-4.45-38.17.28-54.75,0,0-13.92,36.67-8.82,55.55Z"/><path class="cls-5" d="m244.59,262.79s50.86-16.76,82.68,45.52c0,0-65.85,29.83-85.35-38.05,0,0,33.76,11.16,45.82,21.59,0,0-25.33-25.98-43.16-29.06Z"/><path class="cls-6" d="m140.77,272.49s-19.82,52.64-91.74,37.61c0,0,19.02-73.51,87.38-44.72,0,0-31.37,20.27-47.86,23.25,0,0,37.93-3.58,52.22-16.14Z"/></svg>