<?xml version="1.0" encoding="UTF-8"?><svg id="OBJECTS" xmlns="http://www.w3.org/2000/svg" xmlns:xlink="http://www.w3.org/1999/xlink" viewBox="0 0 800 800"><defs><style>.cls-1{fill:url(#linear-gradient);}.cls-1,.cls-2,.cls-3,.cls-4,.cls-5,.cls-6,.cls-7,.cls-8,.cls-9,.cls-10{stroke-width:0px;}.cls-2{fill:url(#linear-gradient-4);}.cls-3{fill:url(#linear-gradient-2);}.cls-4{fill:url(#linear-gradient-3);}.cls-5{fill:url(#linear-gradient-8);}.cls-6{fill:url(#linear-gradient-9);}.cls-7{fill:url(#linear-gradient-7);}.cls-8{fill:url(#linear-gradient-5);}.cls-9{fill:url(#linear-gradient-6);}.cls-10{fill:#4e4e4d;}</style><linearGradient id="linear-gradient" x1="423.52" y1="238.45" x2="470.16" y2="481.66" gradientTransform="translate(105.76 -106.31) rotate(15.07)" gradientUnits="userSpaceOnUse"><stop offset="0" stop-color="#9dc44d"/><stop offset="1" stop-color="#5fa69b"/></linearGradient><linearGradient id="linear-gradient-2" x1="483.78" y1="254.71" x2="526.58" y2="477.86" gradientTransform="translate(73.48 -84.16) rotate(8.54)" xlink:href="#linear-gradient"/><linearGradient id="linear-gradient-3" x1="235.53" y1="278.91" x2="278.33" y2="502.06" gradientTransform="translate(9.14 15.46) rotate(-1.74)" xlink:href="#linear-gradient"/><linearGradient id="linear-gradient-4" x1="328.08" y1="250.79" x2="382.68" y2="535.48" gradientTransform="translate(-84.56 68.41) rotate(-13.94)" xlink:href="#linear-gradient"/><linearGradient id="linear-gradient-5" x1="492" y1="179.85" x2="520.8" y2="330.04" gradientTransform="translate(-49.31 226.96) rotate(-19.41)" xlink:href="#linear-gradient"/><linearGradient id="linear-gradient-6" x1="277.67" y1="398.16" x2="304.65" y2="538.84" gradientTransform="translate(187.71 -218.63) rotate(24.44)" xlink:href="#linear-gradient"/><linearGradient id="linear-gradient-7" x1="399.06" y1="316.01" x2="434.24" y2="499.48" gradientTransform="translate(90.53 -222.63) rotate(14.06)" xlink:href="#linear-gradient"/><linearGradient id="linear-gradient-8" x1="485.38" y1="359.53" x2="514.19" y2="509.73" gradientTransform="translate(594.26 -198.15) rotate(54.91)" xlink:href="#linear-gradient"/><linearGradient id="linear-gradient-9" x1="174.43" y1="178.29" x2="204.43" y2="334.72" gradientTransform="translate(-8.02 387.26) rotate(-35.99)" xlink:href="#linear-gradient"/></defs><path class="cls-10" d="m430.77,586.7s-14.55-60.55-5.57-97.85c8.98-37.29,23.19-45.12,21.79-50.81-1.4-5.69-8.58-3.01-10.88,2.25-2.3,5.26-11.7,16.6-20.34,14.77-8.64-1.83-10.96-37.31-17.29-40.85-6.32-3.55-4.13,12.85-1.67,27.07,2.45,14.22-9.65,6.3-17.2-10.75-7.55-17.05-11.96-12.05-12.8-9.64-.83,2.41,16.59,32.83,15.31,34.28-1.29,1.46-23.12-23.76-25.24-23.04-2.12.72-5.74,2.72-.52,10.66,5.21,7.94,21.59,21.3,20.55,23.53-1.04,2.23-14.59-9.92-19.53-10.21-4.94-.29-2.93,6.67,5.92,13.02,8.86,6.34,30.54,13.27,31.23,37.24.69,23.97-5.54,80.24-5.54,80.24,0,0,15.4,21.05,41.78.09Z"/><path class="cls-1" d="m416.68,426.07s-55.56-81.72,38.77-169.82c0,0,86.35,101.68-24.14,170.75,0,0,2.62-65.56,15.01-92.27,0,0-33.22,58.1-29.64,91.34Z"/><path class="cls-3" d="m454.21,433.95s34.12-71.88,133.72-42.24c0,0-35.44,101.38-128.42,52.76,0,0,46.61-24.86,70.2-27.14,0,0-53.9.6-75.5,16.61Z"/><path class="cls-4" d="m350.42,435.38s-65.64,46.14-138.36-29.31c0,0,81.45-71.4,138.93,17.43,0,0-53.26-1.29-75.1-11.02,0,0,47.59,26.23,74.53,22.9Z"/><path class="cls-2" d="m366.9,413.69s-85.02-28.99-64.64-144.52c0,0,118.28,26.65,75.76,137.21,0,0-33.9-49.06-39.5-75.22,0,0,7.64,60.38,28.39,82.53Z"/><path class="cls-8" d="m500.24,367.56s-2.39-53.5,66.18-67.3c0,0,10.91,71.46-59.71,71.88,0,0,19.87-29.48,33.18-38.28,0,0-31.86,17.36-39.65,33.7Z"/><path class="cls-9" d="m289.66,369.72s-49.97,7.86-70.13-55.06c0,0,65.94-17.75,73.76,48.5,0,0-29.78-15.54-39.43-27.12,0,0,19.64,28.08,35.8,33.68Z"/><path class="cls-7" d="m387.41,305.8s-39.61-42.22,6.95-101.79c0,0,59.24,50.95,1.59,100.99,0,0-4.45-38.17.28-54.75,0,0-13.92,36.67-8.82,55.55Z"/><path class="cls-5" d="m456.65,466.8s50.86-16.76,82.68,45.52c0,0-65.85,29.83-85.35-38.05,0,0,33.76,11.16,45.82,21.59,0,0-25.33-25.98-43.16-29.06Z"/><path class="cls-6" d="m352.83,476.5s-19.82,52.64-91.74,37.61c0,0,19.02-73.51,87.38-44.72,0,0-31.37,20.27-47.86,23.25,0,0,37.93-3.58,52.22-16.14Z"/></svg>